<?xml version="1.0" encoding="UTF-8" standalone="no"?>

<svg
        xmlns="http://www.w3.org/2000/svg"
        version="1.1"
        x="0px"
        y="0px"
        width="1024px"
        height="1024px"
        viewBox="0 0 570 570"
        xml:space="preserve"
        id="pandaSvg">
    <g id="g63">
        <path
                id="path3"
                d="m 568.28837,100.79099 c 0,55.7 -45.2,100.8 -100.8,100.8 -55.6,0 -100.8,-45.2 -100.8,-100.8 0,-55.699995 45.1,-100.79999558 100.8,-100.79999558 55.7,0 100.8,45.10000058 100.8,100.79999558 z m 0,0"
                style="fill:#4b3f4e;image-rendering:optimizeQuality"
        />
        <path
                id="path5"
                d="m 531.68837,100.79099 c 0,35.4 -28.7,64.2 -64.2,64.2 -35.4,0 -64.2,-28.7 -64.2,-64.2 0,-35.399995 28.7,-64.199995 64.2,-64.199995 35.4,0.1 64.2,28.8 64.2,64.199995 z m 0,0"
                style="fill:#6f6571;image-rendering:optimizeQuality"
        />
        <path
                id="path7"
                d="m 201.58837,100.79099 c 0,55.7 -45.2,100.8 -100.8,100.8 -55.6,0 -100.79999951,-45.2 -100.79999951,-100.8 0,-55.699995 45.09999951,-100.79999558 100.79999951,-100.79999558 55.7,0 100.8,45.10000058 100.8,100.79999558 z m 0,0"
                style="fill:#4b3f4e;image-rendering:optimizeQuality"
        />
        <path
                id="path9"
                d="m 164.98837,100.79099 c 0,35.4 -28.7,64.2 -64.2,64.2 -35.4,0 -64.2,-28.7 -64.2,-64.2 0,-35.399995 28.7,-64.199995 64.2,-64.199995 35.4,0.1 64.2,28.8 64.2,64.199995 z m 0,0"
                style="fill:#6f6571;image-rendering:optimizeQuality"
        />
        <path
                id="path11"
                d="m 549.98837,311.69099 c 0,141.8 -119,256.7 -265.9,256.7 -146.8,0 -265.9,-114.9 -265.9,-256.7 0,-141.8 119,-256.699995 265.9,-256.699995 146.9,0 265.9,114.899995 265.9,256.699995 z m 0,0"
                style="fill:#edebed;image-rendering:optimizeQuality"
        />
        <path
                id="path13"
                d="m 457.38837,396.99099 c -37.2,21.5 -88,3.4 -113.3,-40.4 -25.3,-43.8 -15.6,-96.8 21.6,-118.3 37.2,-21.5 88,-3.4 113.3,40.4 25.3,43.8 15.6,96.8 -21.6,118.3 z m 0,0"
                style="fill:#4b3f4e;image-rendering:optimizeQuality"
        />
        <path
                id="path15"
                d="m 100.78837,302.49099 c 0,-101.9 50.2,-191.2 125.5,-241.399995 -119,25.5 -208.1,127.899995 -208.1,250.499995 0,137.8 112.5,250.2 253.7,256.4 -100,-40.7 -171.1,-144.2 -171.1,-265.5 z m 0,0"
                style="fill:#dbd9dc;image-rendering:optimizeQuality"
        />
        <path
                id="path17"
                d="m 394.08837,339.19099 c -15.2,0 -27.5,-12.3 -27.5,-27.5 v -9.2 c 0,-15.2 12.3,-27.5 27.5,-27.5 15.2,0 27.5,12.3 27.5,27.5 v 9.2 c 0,15.2 -12.3,27.5 -27.5,27.5 z m 0,0"
                style="fill:#5d5360;image-rendering:optimizeQuality"
        />
        <path
                id="path19"
                d="m 394.08837,274.99099 v 32.1 c 0,7.6 6.2,13.8 13.8,13.8 7.6,0 13.7,-6.2 13.7,-13.8 v -4.6 c 0,-15.2 -12.3,-27.5 -27.5,-27.5 z m 0,0"
                style="fill:#6f6571;image-rendering:optimizeQuality"
        />
        <path
                id="path21"
                d="m 403.28837,293.39099 c 0,5.1 -4.1,9.2 -9.2,9.2 -5.1,0 -9.2,-4.1 -9.2,-9.2 0,-5.1 4.1,-9.2 9.2,-9.2 5.1,0 9.2,4.1 9.2,9.2 z m 0,0"
                style="fill:#ffffff;image-rendering:optimizeQuality"
        />
        <path
                id="path23"
                d="m 366.58837,449.19099 c 0,-20.2 -22.6,-36.7 -50.4,-36.7 -12.2,0 -23.4,3.1 -32.1,8.4 -8.7,-5.2 -19.9,-8.4 -32.1,-8.4 -27.8,0 -50.4,16.4 -50.4,36.7 0,12.2 8.2,22.9 20.7,29.6 1.3,29.4 28.4,52.9 61.8,52.9 33.4,0 60.5,-23.5 61.8,-52.9 12.5,-6.7 20.7,-17.4 20.7,-29.6 z m 0,0"
                style="fill:#ffffff;image-rendering:optimizeQuality"
        />
        <path
                id="path25"
                d="m 329.98837,412.49099 c 0,15.2 -20.5,36.7 -45.8,36.7 -25.3,0 -45.8,-21.5 -45.8,-36.7 0,-15.2 20.5,-27.5 45.8,-27.5 25.2,0 45.8,12.3 45.8,27.5 z m 0,0"
                style="fill:#5d5360;image-rendering:optimizeQuality"
        />
        <path
                id="path27"
                d="m 302.48837,439.99099 c -25.3,0 -45.8,-24.6 -45.8,-41.9 0,-2.9 0.8,-5.7 1.9,-8.4 -12.2,4.9 -20.2,13.3 -20.2,22.8 0,15.2 20.5,36.7 45.8,36.7 11.7,0 22.2,-4.7 30.3,-11.1 -3.9,1.2 -7.9,1.9 -12,1.9 z m 0,0"
                style="fill:#4b3f4e;image-rendering:optimizeQuality"
        />
        <path
                id="path29"
                d="m 202.58837,238.19099 c 37.3,21.5 46.9,74.5 21.6,118.3 -25.3,43.8 -76,61.9 -113.3,40.4 -37.2,-21.5 -46.9,-74.5 -21.6,-118.3 25.3,-43.8 76,-61.9 113.3,-40.4 z m 0,0"
                style="fill:#4b3f4e;image-rendering:optimizeQuality"
        />
        <path
                id="path31"
                d="m 174.08837,339.19099 c -15.2,0 -27.5,-12.3 -27.5,-27.5 v -9.2 c 0,-15.2 12.3,-27.5 27.5,-27.5 15.2,0 27.5,12.3 27.5,27.5 v 9.2 c 0,15.2 -12.3,27.5 -27.5,27.5 z m 0,0"
                style="fill:#5d5360;image-rendering:optimizeQuality"
        />
        <path
                id="path33"
                d="m 174.08837,274.99099 v 32.1 c 0,7.6 6.2,13.8 13.8,13.8 7.6,0 13.7,-6.2 13.7,-13.8 v -4.6 c 0,-15.2 -12.3,-27.5 -27.5,-27.5 z m 0,0"
                style="fill:#6f6571;image-rendering:optimizeQuality"
        />
        <path
                id="path35"
                d="m 183.28837,293.39099 c 0,5.1 -4.1,9.2 -9.2,9.2 -5.1,0 -9.2,-4.1 -9.2,-9.2 0,-5.1 4.1,-9.2 9.2,-9.2 5.1,0 9.2,4.1 9.2,9.2 z m 0,0"
                style="fill:#ffffff;image-rendering:optimizeQuality"
        />
        <path
                id="path37"
                d="m 362.58837,464.39099 c -3.8,-2.8 -9.2,-2 -12,1.8 -6.9,9.3 -18.4,15.1 -30.9,14.9 -40.2,-0.8 -21.9,-34.9 -27.9,-38.4 -9.5,-5.6 -7.2,-4.5 -16.7,1 -6,3.5 11.9,37.4 -26.5,37.4 -12.5,0 -24,-5.6 -30.9,-14.9 -2.8,-3.8 -8.2,-4.6 -12,-1.8 -3.8,2.8 -4.6,8.2 -1.8,12 10.1,13.7 26.8,21.8 44.7,21.8 10.2,0 20.1,-2.7 28.8,-7.7 4.2,-2.4 9.4,-2.4 13.6,0 8.6,5 18.6,7.7 28.8,7.7 17.9,0 34.6,-8.2 44.7,-21.8 2.7,-3.8 1.9,-9.2 -1.9,-12 z m 0,0"
                style="fill:#4b3f4e;image-rendering:optimizeQuality"
        />
    </g>
</svg>
